<svg xmlns="http://www.w3.org/2000/svg" xmlns:xlink="http://www.w3.org/1999/xlink" version="1.1" id="Capa_1" x="0px" y="0px" viewBox="0 0 512 512" style="width: 1em; height: 1em; vertical-align: middle; fill: currentcolor; overflow: hidden; font-size: 200px;" xml:space="preserve" width="200" height="200">
<g>
	<path style="fill:#FDBF00;" d="M508.7,186.299l-87.7,75.3L256,405L91,261.599l-87.7-75.3c0.901-1.199,1.5-2.399,2.701-3.3   c2.699-1.8,40.6-29.7,85-62.999c12.9-9.6,26.4-19.801,39.901-30C187.301,47.699,242.5,6.599,247,2.999c2.699-1.8,6-2.999,9-2.999   s6.301,1.199,9,2.999C282.7,16.199,331.601,52.8,381.099,90c13.5,10.199,27.001,20.099,39.901,30   c2.846,2.134,81.867,60.494,85,62.999C507.201,183.9,507.8,185.099,508.7,186.299z"></path>
	<path style="fill:#FF9100;" d="M508.7,186.299l-87.7,75.3L256,405V0c2.999,0,6.301,1.199,9,2.999   C282.7,16.199,331.601,52.8,381.099,90c13.5,10.199,27.001,20.099,39.901,30c2.846,2.134,81.867,60.494,85,62.999   C507.201,183.9,507.8,185.099,508.7,186.299z"></path>
	<path style="fill:#ECECF1;" d="M421,105v156.599L256,405L91,261.599V105c0-8.401,6.599-15,15-15h300C414.401,90,421,96.599,421,105   z"></path>
	<path style="fill:#D3D3D8;" d="M421,105v156.599L256,405V90h150C414.401,90,421,96.599,421,105z"></path>
	<path style="fill:#FFDA2D;" d="M512,195v302c0,8.399-6.599,15-15,15H15c-8.401,0-15-6.601-15-15V195c0-3.3,1.5-6.301,3.3-8.701   l197.5,147.301l-2.399,21.299l27.9-2.098L256,375l29.7-22.2l28.5,1.5l-2.999-20.7l197.5-147.301C510.5,188.699,512,191.7,512,195z"></path>
	<path style="fill:#FDBF00;" d="M512,195v302c0,8.399-6.599,15-15,15H256V375l29.7-22.2l28.5,1.5l-2.999-20.7l197.5-147.301   C510.5,188.699,512,191.7,512,195z"></path>
	<path style="fill:#D3D3D8;" d="M331,195c0,8.399-6.599,15-15,15H196c-8.401,0-15-6.601-15-15c0-8.401,6.599-15,15-15h120   C324.401,180,331,186.599,331,195z"></path>
	<path style="fill:#D3D3D8;" d="M331,255c0,8.399-6.599,15-15,15H196c-8.401,0-15-6.601-15-15c0-8.401,6.599-15,15-15h120   C324.401,240,331,246.599,331,255z"></path>
	<path style="fill:#FDBF00;" d="M226.3,352.8l-96.899,64.799c-8.275,4.595-16.506,2.093-21-4.2c-4.501-6.899-2.701-16.199,4.199-21   l88.2-58.799L226.3,352.8z"></path>
	<path style="fill:#FF9100;" d="M403.599,413.399c-4.354,6.098-12.478,8.932-21,4.2L285.7,352.8l25.501-19.2l88.2,58.799   C406.3,397.2,408.1,406.5,403.599,413.399z"></path>
	<path style="fill:#BABAC0;" d="M331,255c0,8.399-6.599,15-15,15h-60v-30h60C324.401,240,331,246.599,331,255z"></path>
	<path style="fill:#BABAC0;" d="M316,210h-60v-30h60c8.401,0,15,6.599,15,15C331,203.399,324.401,210,316,210z"></path>
</g>















</svg>