<svg height="200" viewBox="0 0 452 452.71928" width="200" xmlns="http://www.w3.org/2000/svg" style="width: 1em; height: 1em; vertical-align: middle; fill: currentcolor; overflow: hidden; font-size: 200px;"><path d="m14.1875 184.109375c-6.660156 6.199219-10.800781 15.039063-10.800781 24.839844v206.71875c0 9.800781 4.140625 18.640625 10.800781 24.859375l154.179688-128.21875zm0 0" fill="#f16c7a"></path><path d="m170.285156 310-154.179687-128.199219c-1.160157-.964843-2.859375-.914062-3.964844.109375-7.46875 6.957032-11.753906 16.808594-11.753906 27.039063v131.097656c0 1.660156 1.34375 3 3 3s3-1.339844 3-3v-131.097656c0-7.6875 2.886719-15.121094 8-20.773438l149.289062 124.132813-149.289062 124.152344c-5.179688-5.703126-8-12.992188-8-20.792969v-45.011719c0-1.65625-1.34375-3-3-3s-3 1.34375-3 3v45.011719c0 10.214843 4.28125 20.074219 11.753906 27.050781.574219.535156 1.308594.808594 2.046875.808594.679688 0 1.359375-.230469 1.917969-.695313l154.179687-128.21875c.683594-.570312 1.082032-1.414062 1.082032-2.304687s-.398438-1.738282-1.082032-2.308594zm0 0" fill="#3a312a"></path><path d="m438.585938 184.109375-154.179688 128.199219 154.179688 128.21875c6.660156-6.21875 10.800781-15.058594 10.800781-24.859375v-206.71875c0-9.800781-4.140625-18.640625-10.800781-24.839844zm0 0" fill="#f16c7a"></path><path d="m440.628906 181.914062c-1.105468-1.027343-2.800781-1.078124-3.960937-.109374l-154.179688 128.199218c-.6875.570313-1.082031 1.414063-1.082031 2.304688s.394531 1.738281 1.082031 2.308594l154.179688 128.21875c.554687.464843 1.238281.691406 1.917969.691406.734374 0 1.472656-.269532 2.046874-.804688 7.46875-6.976562 11.753907-16.839844 11.753907-27.054687v-206.71875c0-10.226563-4.285157-20.082031-11.757813-27.035157zm5.757813 233.753907c0 7.804687-2.824219 15.09375-8 20.796875l-149.289063-124.15625 149.289063-124.132813c5.109375 5.65625 8 13.085938 8 20.773438zm0 0" fill="#3a312a"></path><path d="m284.40625 55.871094-33.699219-28.023438c-13.421875-11.160156-35.222656-11.160156-48.640625 0l-33.699218 28.023438-5.167969 4.292968-22.925781 19.066407-10.917969 9.074219s-103.65625 86.238281-115.167969 95.804687l154.183594 128.199219 33.699218 28.019531c13.417969 11.15625 35.214844 11.15625 48.628907 0l33.699219-28.019531 154.179687-128.210938c-1.152344-1.085937-154.171875-128.226562-154.171875-128.226562zm0 0" fill="#87796f"></path><path d="m440.636719 181.914062c-1.164063-1.09375-128.75-107.113281-154.3125-128.351562l-33.699219-28.019531c-14.464844-12.03125-38.007812-12.03125-52.476562 0l-38.867188 32.3125c-1.273438 1.058593-1.449219 2.953125-.386719 4.226562 1.058594 1.273438 2.949219 1.445313 4.222657.386719l38.867187-32.3125c12.351563-10.273438 32.453125-10.273438 44.804687 0l33.699219 28.019531c47.878907 39.785157 135.15625 112.324219 151.417969 125.910157l-185.125 153.933593c-12.347656 10.269531-32.441406 10.273438-44.792969 0l-185.109375-153.910156c20.050782-16.671875 112.394532-93.496094 112.394532-93.496094l10.914062-9.078125c1.273438-1.058594 1.449219-2.953125.386719-4.222656-1.054688-1.273438-2.949219-1.449219-4.222657-.390625l-10.914062 9.078125s-103.65625 86.238281-115.167969 95.804688c-.6875.570312-1.082031 1.417968-1.082031 2.304687 0 .890625.394531 1.738281 1.082031 2.308594l187.882813 156.21875c7.234375 6.015625 16.730468 9.019531 26.230468 9.019531s19.003907-3.007812 26.234376-9.019531l187.875-156.230469c.660156-.546875 1.054687-1.355469 1.082031-2.214844.03125-.859375-.3125-1.6875-.9375-2.277344zm0 0" fill="#3a312a"></path><path d="m284.398438 312.308594-33.699219-28.015625c-13.414063-11.15625-35.214844-11.15625-48.628907 0l-33.699218 28.015625-154.179688 128.210937c6.054688 5.707031 14.253906 9.199219 23.265625 9.199219h377.855469c9.011719 0 17.210938-3.492188 23.265625-9.199219zm0 0" fill="#f16c7a"></path><path d="m440.496094 438.214844-187.875-156.230469c-14.464844-12.027344-38-12.027344-52.464844 0l-187.878906 156.230469c-.660156.546875-1.054688 1.355468-1.078125 2.210937-.03125.859375.316406 1.6875.941406 2.277344 6.851563 6.457031 15.84375 10.015625 25.320313 10.015625h377.855468c9.476563 0 18.46875-3.554688 25.324219-10.015625.625-.589844.96875-1.417969.941406-2.277344-.03125-.855469-.425781-1.664062-1.085937-2.210937zm-25.183594 8.503906h-377.855469c-6.785156 0-13.273437-2.171875-18.59375-6.179688l185.125-153.941406c12.351563-10.269531 32.445313-10.265625 44.792969 0l185.125 153.941406c-5.320312 4.007813-11.808594 6.179688-18.59375 6.179688zm0 0" fill="#3a312a"></path><path d="m65.183594 22.351562c-1.949219 23.128907-26.050782 26.78125-26.050782 26.78125 20.691407.972657 25.847657 28.117188 25.847657 28.117188.441406-19.355469 26.644531-28.40625 26.644531-28.40625-19.628906-1.171875-26.441406-26.492188-26.441406-26.492188zm0 0" fill="#d7e057"></path><path d="m91.804688 45.851562c-17.207032-1.027343-23.664063-24.046874-23.726563-24.28125-.378906-1.40625-1.710937-2.328124-3.167969-2.203124-1.449218.128906-2.597656 1.28125-2.71875 2.730468-1.71875 20.433594-22.625 23.929688-23.507812 24.066406-1.527344.230469-2.628906 1.582032-2.546875 3.125.078125 1.539063 1.3125 2.765626 2.855469 2.839844 18.054687.851563 22.996093 25.4375 23.042968 25.683594.277344 1.421875 1.519532 2.433594 2.945313 2.433594.085937 0 .167969 0 .253906-.007813 1.53125-.128906 2.714844-1.386719 2.75-2.921875.386719-17.015625 24.378906-25.554687 24.625-25.636718 1.351563-.46875 2.183594-1.828126 1.988281-3.246094-.199218-1.414063-1.367187-2.496094-2.792968-2.582032zm-27.132813 20.691407c-2.714844-6.257813-7.417969-13.816407-15.175781-17.75 5.863281-2.8125 12.816406-7.828125 16.402344-16.546875 3.101562 6.140625 8.402343 13.757812 16.667968 17.441406-6.011718 3.28125-13.839844 8.8125-17.894531 16.855469zm0 0" fill="#3a312a"></path><path d="m21.785156 56.3125c-1.378906 16.359375-18.425781 18.941406-18.425781 18.941406 14.636719.6875 18.285156 19.890625 18.285156 19.890625.3125-13.691406 18.84375-20.09375 18.84375-20.09375-13.882812-.828125-18.703125-18.738281-18.703125-18.738281zm0 0" fill="#d7e057"></path><path d="m40.664062 72.058594c-11.53125-.691406-15.941406-16.371094-15.984374-16.53125-.378907-1.402344-1.730469-2.316406-3.164063-2.203125-1.453125.132812-2.601563 1.285156-2.722656 2.738281-1.15625 13.742188-15.292969 16.132812-15.882813 16.226562-1.527344.230469-2.625 1.582032-2.546875 3.121094.082031 1.542969 1.316407 2.769532 2.855469 2.84375 12.070312.566406 15.449219 17.289063 15.480469 17.453125.269531 1.421875 1.515625 2.4375 2.945312 2.4375.082031 0 .164063 0 .25-.007812 1.527344-.128907 2.714844-1.390625 2.75-2.921875.261719-11.421875 16.664063-17.269532 16.824219-17.324219 1.351562-.46875 2.1875-1.828125 1.992188-3.246094-.195313-1.417969-1.367188-2.5-2.796876-2.585937zm-19.167968 13.589844c-1.847656-3.769532-4.679688-7.894532-8.890625-10.558594 3.707031-2.082032 7.390625-5.261719 9.742187-9.835938 2.113282 3.75 5.304688 7.910156 9.878906 10.449219-3.699218 2.203125-7.980468 5.480469-10.730468 9.945313zm0 0" fill="#3a312a"></path><path d="m21.785156 3c-1.378906 16.355469-18.425781 18.941406-18.425781 18.941406 14.636719.6875 18.285156 19.886719 18.285156 19.886719.3125-13.6875 18.84375-20.089844 18.84375-20.089844-13.882812-.832031-18.703125-18.738281-18.703125-18.738281zm0 0" fill="#d7e057"></path><path d="m40.664062 18.742188c-11.53125-.691407-15.941406-16.371094-15.984374-16.527344-.378907-1.40625-1.730469-2.316406-3.164063-2.2070315-1.453125.1328125-2.601563 1.2851565-2.722656 2.7382815-1.15625 13.742187-15.292969 16.132812-15.882813 16.226562-1.527344.230469-2.625 1.582032-2.546875 3.121094.082031 1.542969 1.316407 2.769531 2.855469 2.84375 12.070312.566406 15.449219 17.285156 15.480469 17.449219.269531 1.425781 1.515625 2.441406 2.945312 2.441406.082031 0 .164063-.003906.25-.011719 1.527344-.125 2.714844-1.386718 2.75-2.921875.261719-11.417969 16.664063-17.265625 16.824219-17.324219 1.351562-.46875 2.1875-1.824218 1.992188-3.242187-.195313-1.417969-1.367188-2.5-2.796876-2.585937zm-19.167968 13.589843c-1.847656-3.769531-4.679688-7.894531-8.890625-10.558593 3.707031-2.082032 7.390625-5.261719 9.742187-9.832032 2.113282 3.746094 5.304688 7.910156 9.878906 10.449219-3.699218 2.199219-7.980468 5.476563-10.730468 9.941406zm0 0" fill="#3a312a"></path><path d="m438.386719 188.175781-18 14.96875v218.34375l18 14.972657c5.175781-5.703126 8-12.988282 8-20.792969v-206.71875c0-7.6875-2.890625-15.121094-8-20.773438zm0 0" fill="#ce4e61"></path><path d="m420.386719 172.816406v22.507813l13.519531-11.242188c-2.703125-2.253906-7.402344-6.167969-13.519531-11.265625zm0 0" fill="#6b5b51"></path><path d="m419.027344 428.148438c-1.863282 4.742187-4.78125 8.960937-8.441406 12.378906-2.699219 2.523437-5.820313 4.640625-9.238282 6.203125h13.957032c6.800781 0 13.28125-2.179688 18.601562-6.203125zm0 0" fill="#ce4e61"></path></svg>