<svg height="200" viewBox="0 -11 452.0261 452" width="200" xmlns="http://www.w3.org/2000/svg" style="width: 1em; height: 1em; vertical-align: middle; fill: currentcolor; overflow: hidden; font-size: 200px;"><path d="m13.824219 161.796875c-6.65625 6.199219-10.796875 15.039063-10.796875 24.839844v206.71875c0 9.800781 4.140625 18.640625 10.796875 24.859375l154.183593-128.21875zm0 0" fill="#f16c7a"></path><path d="m169.925781 287.6875-154.183593-128.199219c-1.15625-.964843-2.855469-.917969-3.960938.109375-7.46875 6.957032-11.7539062 16.808594-11.7539062 27.039063v206.714843c0 10.21875 4.2812502 20.078126 11.7539062 27.054688.574219.535156 1.308594.808594 2.042969.808594.683593 0 1.363281-.230469 1.917969-.695313l154.183593-128.21875c.683594-.570312 1.082031-1.417969 1.082031-2.308593 0-.890626-.398437-1.734376-1.082031-2.304688zm-155.898437 126.460938c-5.179688-5.703126-8-12.992188-8-20.792969v-206.71875c0-7.6875 2.886718-15.121094 8-20.777344l149.289062 124.132813zm0 0" fill="#3a312a"></path><path d="m438.226562 161.796875-154.179687 128.199219 154.179687 128.21875c6.660157-6.21875 10.800782-15.058594 10.800782-24.859375v-206.71875c0-9.800781-4.140625-18.640625-10.800782-24.839844zm0 0" fill="#f16c7a"></path><path d="m440.269531 159.597656c-1.109375-1.027344-2.800781-1.074218-3.960937-.109375l-154.179688 128.199219c-.6875.570312-1.082031 1.414062-1.082031 2.304688 0 .890624.394531 1.738281 1.082031 2.308593l154.179688 128.21875c.554687.460938 1.238281.695313 1.917968.695313.734376 0 1.472657-.273438 2.046876-.808594 7.46875-6.976562 11.753906-16.835938 11.753906-27.054688v-206.714843c0-10.226563-4.289063-20.082031-11.757813-27.039063zm5.757813 233.753906c0 7.804688-2.824219 15.09375-8 20.796876l-149.292969-124.15625 149.292969-124.132813c5.109375 5.65625 8 13.089844 8 20.777344zm0 0" fill="#3a312a"></path><path d="m284.039062 289.996094-33.699218-28.019532c-13.414063-11.15625-35.214844-11.15625-48.628906 0l-33.699219 28.019532-154.179688 128.207031c6.054688 5.707031 14.253907 9.203125 23.265625 9.203125h377.855469c9.011719 0 17.210937-3.496094 23.265625-9.203125zm0 0" fill="#f16c7a"></path><path d="m440.136719 415.898438-187.875-156.226563c-14.464844-12.023437-38-12.03125-52.464844 0l-187.878906 156.226563c-.660157.546874-1.054688 1.355468-1.078125 2.210937-.03125.863281.3125 1.691406.9375 2.28125 6.855468 6.457031 15.847656 10.015625 25.324218 10.015625h377.855469c9.476563 0 18.472657-3.558594 25.324219-10.015625.625-.589844.96875-1.417969.941406-2.28125-.03125-.855469-.425781-1.664063-1.085937-2.210937zm-25.183594 8.507812h-377.855469c-6.789062 0-13.273437-2.175781-18.59375-6.179688l185.125-153.945312c12.351563-10.269531 32.445313-10.265625 44.792969 0l185.125 153.945312c-5.320313 4.003907-11.808594 6.179688-18.59375 6.179688zm0 0" fill="#3a312a"></path><path d="m414.953125 152.585938h-377.855469c-9.011718 0-17.210937 3.492187-23.265625 9.199218l154.179688 128.210938 33.699219 28.015625c13.417968 11.15625 35.214843 11.15625 48.628906 0l33.699218-28.015625 154.179688-128.210938c-6.054688-5.707031-14.253906-9.199218-23.265625-9.199218zm0 0" fill="#f16c7a"></path><path d="m440.277344 159.601562c-6.851563-6.457031-15.847656-10.015624-25.324219-10.015624h-306.488281c-1.65625 0-3 1.34375-3 3s1.34375 3 3 3h306.488281c6.789063 0 13.273437 2.171874 18.597656 6.179687l-185.125 153.941406c-12.351562 10.269531-32.445312 10.273438-44.792969 0l-185.125-153.941406c5.320313-4.007813 11.804688-6.179687 18.59375-6.179687h42.492188c1.65625 0 3-1.34375 3-3s-1.34375-3-3-3h-42.496094c-9.476562 0-18.46875 3.554687-25.324218 10.015624-.625.589844-.964844 1.417969-.9375 2.277344.023437.859375.417968 1.664063 1.078124 2.210938l187.878907 156.230468c7.230469 6.011719 16.730469 9.019532 26.230469 9.019532s19-3.007813 26.234374-9.019532l187.875-156.230468c.660157-.546875 1.054688-1.355469 1.082032-2.210938.027344-.859375-.3125-1.6875-.9375-2.277344zm0 0" fill="#3a312a"></path><path d="m64.820312 22.738281c-1.945312 23.125-26.046874 26.777344-26.046874 26.777344 20.691406.976563 25.847656 28.121094 25.847656 28.121094.441406-19.355469 26.644531-28.40625 26.644531-28.40625-19.628906-1.171875-26.445313-26.492188-26.445313-26.492188zm0 0" fill="#d7e057"></path><path d="m91.445312 46.238281c-17.210937-1.03125-23.664062-24.050781-23.726562-24.285156-.378906-1.402344-1.710938-2.304687-3.167969-2.203125-1.449219.132812-2.597656 1.285156-2.71875 2.734375-1.71875 20.433594-22.625 23.929687-23.511719 24.066406-1.523437.230469-2.625 1.582031-2.542968 3.121094.078125 1.542969 1.3125 2.769531 2.855468 2.839844 18.054688.851562 22.996094 25.4375 23.042969 25.6875.277344 1.425781 1.519531 2.4375 2.945313 2.4375.085937 0 .167968-.003907.253906-.011719 1.527344-.128906 2.714844-1.386719 2.75-2.921875.386719-17.015625 24.378906-25.550781 24.625-25.636719 1.351562-.46875 2.183594-1.828125 1.984375-3.242187-.195313-1.421875-1.363281-2.503907-2.789063-2.585938zm-27.132812 20.6875c-2.710938-6.261719-7.417969-13.816406-15.175781-17.753906 5.863281-2.808594 12.816406-7.824219 16.402343-16.542969 3.101563 6.140625 8.402344 13.761719 16.667969 17.445313-6.011719 3.277343-13.839843 8.8125-17.894531 16.851562zm0 0" fill="#3a312a"></path><path d="m21.425781 56.699219c-1.378906 16.359375-18.425781 18.941406-18.425781 18.941406 14.636719.6875 18.285156 19.886719 18.285156 19.886719.3125-13.6875 18.84375-20.089844 18.84375-20.089844-13.886718-.832031-18.703125-18.738281-18.703125-18.738281zm0 0" fill="#d7e057"></path><path d="m40.304688 72.441406c-11.53125-.6875-15.941407-16.371094-15.984376-16.527344-.378906-1.40625-1.730468-2.3125-3.164062-2.203124-1.453125.128906-2.601562 1.285156-2.722656 2.734374-1.15625 13.738282-15.292969 16.132813-15.882813 16.226563-1.527343.230469-2.6249998 1.582031-2.54687475 3.121094.08203125 1.542969 1.31249975 2.769531 2.85546875 2.84375 12.070313.566406 15.449219 17.289062 15.480469 17.453125.269531 1.425781 1.515625 2.4375 2.945312 2.4375.082032 0 .164063-.003906.25-.007813 1.527344-.125 2.714844-1.386719 2.75-2.921875.261719-11.417968 16.664063-17.269531 16.824219-17.324218 1.351563-.46875 2.1875-1.828126 1.992187-3.246094-.199218-1.417969-1.367187-2.5-2.796874-2.585938zm-19.167969 13.589844c-1.847657-3.769531-4.679688-7.890625-8.894531-10.558594 3.710937-2.082031 7.394531-5.257812 9.742187-9.832031 2.117187 3.75 5.308594 7.910156 9.882813 10.449219-3.699219 2.199218-7.980469 5.480468-10.730469 9.941406zm0 0" fill="#3a312a"></path><path d="m21.425781 3.382812c-1.378906 16.359376-18.425781 18.941407-18.425781 18.941407 14.636719.6875 18.285156 19.886719 18.285156 19.886719.3125-13.6875 18.84375-20.089844 18.84375-20.089844-13.886718-.828125-18.703125-18.738282-18.703125-18.738282zm0 0" fill="#d7e057"></path><path d="m40.304688 19.128906c-11.53125-.691406-15.941407-16.375-15.984376-16.53125-.378906-1.40625-1.730468-2.3125-3.164062-2.203125-1.453125.128907-2.601562 1.285157-2.722656 2.734375-1.15625 13.742188-15.292969 16.132813-15.882813 16.226563-1.527343.230469-2.6249998 1.582031-2.54687475 3.121093.08203125 1.542969 1.31249975 2.769532 2.85546875 2.84375 12.070313.566407 15.449219 17.289063 15.480469 17.453126.269531 1.425781 1.515625 2.441406 2.945312 2.441406.082032 0 .164063-.003906.25-.011719 1.527344-.125 2.714844-1.386719 2.75-2.921875.261719-11.417969 16.664063-17.265625 16.824219-17.320312 1.351563-.46875 2.1875-1.828126 1.992187-3.246094-.199218-1.417969-1.367187-2.5-2.796874-2.585938zm-19.167969 13.589844c-1.847657-3.773438-4.679688-7.894531-8.894531-10.558594 3.710937-2.082031 7.394531-5.261718 9.742187-9.835937 2.117187 3.75 5.308594 7.910156 9.882813 10.449219-3.699219 2.203124-7.980469 5.476562-10.730469 9.945312zm0 0" fill="#3a312a"></path><path d="m224.675781 184.183594c-16.355469 0-29.617187 13.261718-29.617187 29.617187s13.261718 29.613281 29.617187 29.613281 29.613281-13.257812 29.613281-29.613281-13.257812-29.617187-29.613281-29.617187zm0 0" fill="#d7e057"></path><path d="m224.675781 181.183594c-17.984375 0-32.617187 14.628906-32.617187 32.617187 0 17.984375 14.632812 32.613281 32.617187 32.613281s32.617188-14.628906 32.617188-32.613281c0-17.988281-14.632813-32.617187-32.617188-32.617187zm0 59.230468c-14.675781 0-26.617187-11.9375-26.617187-26.613281s11.941406-26.617187 26.617187-26.617187 26.617188 11.941406 26.617188 26.617187-11.941407 26.613281-26.617188 26.613281zm0 0" fill="#3a312a"></path><path d="m238.804688 19.257812h127.042968v80.730469h-127.042968zm0 0" fill="#8ac6dd"></path><path d="m365.847656 16.257812h-127.042968c-1.65625 0-3 1.34375-3 3v80.726563c0 1.65625 1.34375 3 3 3h127.042968c1.65625 0 3-1.34375 3-3v-80.726563c0-1.65625-1.34375-3-3-3zm-3 80.730469h-121.042968v-74.730469h121.042968zm0 0" fill="#3a312a"></path><path d="m224.679688 3.011719c-7.804688 0-14.128907 6.328125-14.128907 14.128906v193.585937c0 7.800782 6.324219 14.125 14.128907 14.125 7.800781 0 14.125-6.324218 14.125-14.125v-193.585937c0-7.804687-6.328126-14.128906-14.125-14.128906zm0 0" fill="#87796f"></path><path d="m224.675781.0117188c-9.445312 0-17.125 7.6835932-17.125 17.1289062v51.582031c0 1.65625 1.34375 3 3 3s3-1.34375 3-3v-51.582031c0-6.136719 4.988281-11.128906 11.125-11.128906s11.125 4.992187 11.125 11.128906v193.585937c0 6.132813-4.992187 11.125-11.125 11.125-6.132812 0-11.125-4.988281-11.125-11.125v-112.03125c0-1.652343-1.34375-3-3-3s-3 1.347657-3 3v112.03125c0 9.445313 7.679688 17.125 17.125 17.125 9.445313 0 17.125-7.679687 17.125-17.125v-193.585937c.003907-9.445313-7.679687-17.1289062-17.125-17.1289062zm0 0" fill="#3a312a"></path><g fill="#ce4e61"><path d="m438.027344 165.867188-25 20.78125v206.71875l25 20.78125c5.179687-5.699219 8-13 8-20.800782v-206.71875c0-7.679687-2.882813-15.121094-8-20.761718zm0 0"></path><path d="m412.265625 400.527344c-.5 2.300781-1.21875 4.5-2.140625 6.601562-1.859375 4.199219-4.578125 7.960938-7.898438 11.082032-2.699218 2.519531-5.820312 4.636718-9.242187 6.199218h21.960937c6.800782 0 13.28125-2.179687 18.601563-6.179687zm0 0"></path><path d="m414.945312 155.589844h-21.960937c3.421875 1.558594 6.542969 3.660156 9.242187 6.199218 5 4.640626 8.558594 10.78125 10.039063 17.679688l21.28125-17.699219c-5.320313-4-11.800781-6.179687-18.601563-6.179687zm0 0"></path></g></svg>