<svg height="200" viewBox="0 -21 452.4781 452" width="200" xmlns="http://www.w3.org/2000/svg" style="width: 1em; height: 1em; vertical-align: middle; fill: currentcolor; overflow: hidden; font-size: 200px;"><path d="m64.820312 22.59375c-1.949218 23.128906-26.050781 26.78125-26.050781 26.78125 20.695313.972656 25.851563 28.117188 25.851563 28.117188.441406-19.355469 26.644531-28.40625 26.644531-28.40625-19.628906-1.171876-26.445313-26.492188-26.445313-26.492188zm0 0" fill="#d7e057"></path><path d="m91.445312 46.09375c-17.210937-1.03125-23.664062-24.050781-23.726562-24.28125-.378906-1.40625-1.703125-2.324219-3.167969-2.207031-1.449219.132812-2.597656 1.285156-2.71875 2.734375-1.71875 20.429687-22.625 23.929687-23.507812 24.066406-1.527344.230469-2.625 1.582031-2.546875 3.121094.082031 1.539062 1.316406 2.765625 2.855468 2.839844 18.058594.851562 23 25.4375 23.046876 25.6875.273437 1.421874 1.519531 2.433593 2.945312 2.433593.082031 0 .167969-.003906.25-.011719 1.53125-.128906 2.714844-1.386718 2.75-2.917968.386719-17.019532 24.382812-25.554688 24.625-25.636719 1.351562-.472656 2.183594-1.828125 1.988281-3.246094-.195312-1.417969-1.367187-2.496093-2.792969-2.582031zm-27.132812 20.6875c-2.714844-6.257812-7.417969-13.8125-15.175781-17.75 5.863281-2.808594 12.816406-7.828125 16.402343-16.546875 3.101563 6.140625 8.402344 13.761719 16.667969 17.445313-6.011719 3.28125-13.84375 8.8125-17.894531 16.851562zm0 0" fill="#3a312a"></path><path d="m21.421875 56.554688c-1.378906 16.359374-18.421875 18.941406-18.421875 18.941406 14.632812.6875 18.28125 19.890625 18.28125 19.890625.3125-13.691407 18.84375-20.09375 18.84375-20.09375-13.882812-.832031-18.703125-18.738281-18.703125-18.738281zm0 0" fill="#d7e057"></path><path d="m40.304688 72.296875c-11.53125-.6875-15.941407-16.371094-15.984376-16.527344-.378906-1.40625-1.722656-2.328125-3.164062-2.203125-1.453125.128906-2.601562 1.28125-2.722656 2.734375-1.15625 13.742188-15.292969 16.132813-15.882813 16.226563-1.527343.230468-2.6249998 1.582031-2.54687475 3.121094.08203125 1.539062 1.31249975 2.769531 2.85546875 2.84375 12.070313.566406 15.449219 17.285156 15.480469 17.449218.269531 1.425782 1.515625 2.441406 2.945312 2.441406.082032 0 .164063-.003906.25-.011718 1.527344-.125 2.714844-1.386719 2.75-2.921875.261719-11.417969 16.664063-17.265625 16.824219-17.324219 1.351563-.464844 2.1875-1.824219 1.992187-3.242188-.199218-1.414062-1.367187-2.496093-2.796874-2.585937zm-19.167969 13.59375c-1.847657-3.773437-4.679688-7.894531-8.894531-10.5625 3.710937-2.082031 7.394531-5.257813 9.742187-9.832031 2.113281 3.75 5.308594 7.910156 9.882813 10.449218-3.699219 2.199219-7.980469 5.480469-10.730469 9.945313zm0 0" fill="#3a312a"></path><path d="m21.421875 3.242188c-1.378906 16.355468-18.421875 18.9375-18.421875 18.9375 14.632812.6875 18.28125 19.890624 18.28125 19.890624.3125-13.691406 18.84375-20.089843 18.84375-20.089843-13.882812-.832031-18.703125-18.738281-18.703125-18.738281zm0 0" fill="#d7e057"></path><path d="m40.304688 18.984375c-11.476563-.6875-15.902344-16.222656-15.984376-16.527344-.378906-1.402343-1.722656-2.335937-3.164062-2.207031-1.453125.128906-2.601562 1.285156-2.722656 2.738281-1.15625 13.738281-15.292969 16.128907-15.882813 16.222657-1.527343.230468-2.6249998 1.582031-2.54687475 3.121093.08203125 1.539063 1.31249975 2.769531 2.85546875 2.84375 12.070313.566407 15.449219 17.285157 15.480469 17.449219.269531 1.425781 1.515625 2.441406 2.945312 2.441406.082032 0 .164063 0 .25-.007812 1.527344-.128906 2.714844-1.390625 2.75-2.921875.261719-11.421875 16.664063-17.269531 16.824219-17.324219 1.351563-.46875 2.1875-1.828125 1.992187-3.246094-.199218-1.414062-1.367187-2.496094-2.796874-2.582031zm-19.167969 13.589844c-1.847657-3.769531-4.679688-7.894531-8.894531-10.558594 3.710937-2.082031 7.394531-5.257813 9.742187-9.832031 2.113281 3.746094 5.308594 7.910156 9.882813 10.445312-3.699219 2.203125-7.980469 5.480469-10.730469 9.945313zm0 0" fill="#3a312a"></path><path d="m14.277344 141.609375c-6.660156 6.203125-10.800782 15.042969-10.800782 24.839844v206.722656c0 9.800781 4.140626 18.640625 10.800782 24.859375l154.179687-128.21875zm0 0" fill="#f16c7a"></path><path d="m170.375 267.503906-154.179688-128.199218c-1.160156-.964844-2.859374-.917969-3.964843.113281-7.464844 6.953125-11.753907 16.808593-11.753907 27.035156v59.46875c0 1.660156 1.34375 3 3 3s3-1.339844 3-3v-59.472656c0-7.683594 2.886719-15.117188 8-20.769531l149.292969 124.132812-149.292969 124.148438c-5.175781-5.699219-8-12.988282-8-20.789063v-116.632813c0-1.65625-1.34375-3-3-3s-3 1.34375-3 3v116.632813c0 10.214844 4.285157 20.074219 11.75 27.050781.578126.535156 1.3125.808594 2.050782.808594.679687 0 1.359375-.230469 1.917968-.695312l154.179688-128.21875c.6875-.570313 1.082031-1.417969 1.082031-2.304688 0-.890625-.394531-1.738281-1.082031-2.308594zm0 0" fill="#3a312a"></path><path d="m438.679688 141.609375-154.179688 128.203125 154.179688 128.21875c6.660156-6.21875 10.796874-15.058594 10.796874-24.859375v-206.722656c0-9.796875-4.136718-18.636719-10.796874-24.839844zm0 0" fill="#f16c7a"></path><path d="m440.722656 139.414062c-1.105468-1.027343-2.800781-1.074218-3.960937-.109374l-154.179688 128.199218c-.6875.570313-1.082031 1.414063-1.082031 2.304688s.394531 1.734375 1.082031 2.304687l154.179688 128.222657c.554687.460937 1.238281.691406 1.917969.691406.734374 0 1.46875-.269532 2.042968-.804688 7.472656-6.976562 11.753906-16.835937 11.753906-27.054687v-206.71875c0-10.222657-4.28125-20.078125-11.753906-27.035157zm5.753906 233.757813c0 7.800781-2.820312 15.089844-8 20.789063l-149.289062-124.148438 149.289062-124.132812c5.113282 5.652343 8 13.085937 8 20.769531zm0 0" fill="#3a312a"></path><path d="m284.492188 269.8125-33.699219-28.019531c-13.414063-11.15625-35.214844-11.15625-48.628907 0l-33.699218 28.019531-154.179688 128.207031c6.058594 5.707031 14.253906 9.203125 23.265625 9.203125h377.855469c9.015625 0 17.210938-3.496094 23.265625-9.203125zm0 0" fill="#f16c7a"></path><path d="m440.589844 395.714844-187.878906-156.226563c-14.46875-12.035156-38.003907-12.03125-52.460938 0l-187.878906 156.226563c-.660156.546875-1.054688 1.355468-1.082032 2.214844-.027343.855468.316407 1.683593.941407 2.273437 6.855469 6.460937 15.847656 10.019531 25.324219 10.019531h377.855468c9.476563 0 18.46875-3.558594 25.320313-10.019531.628906-.589844.96875-1.417969.945312-2.273437-.03125-.859376-.425781-1.664063-1.085937-2.214844zm-25.183594 8.507812h-377.855469c-6.785156 0-13.273437-2.175781-18.597656-6.183594l185.128906-153.9375c12.347657-10.269531 32.441407-10.269531 44.789063 0l185.128906 153.9375c-5.320312 4.007813-11.808594 6.183594-18.59375 6.183594zm0 0" fill="#3a312a"></path><path d="m415.402344 132.402344h-377.851563c-9.015625 0-17.210937 3.492187-23.265625 9.199218l154.175782 128.210938 33.699218 28.015625c13.417969 11.15625 35.214844 11.15625 48.628906 0l33.699219-28.015625 154.179688-128.210938c-6.050781-5.707031-14.25-9.199218-23.265625-9.199218zm0 0" fill="#f16c7a"></path><path d="m440.726562 139.417969c-6.851562-6.460938-15.84375-10.015625-25.320312-10.015625h-123.246094c-1.652344 0-3 1.339844-3 3 0 1.65625 1.347656 3 3 3h123.246094c6.785156 0 13.273438 2.171875 18.597656 6.179687l-185.128906 153.9375c-12.351562 10.269531-32.445312 10.269531-44.789062 0l-185.128907-153.9375c5.324219-4.007812 11.8125-6.179687 18.597657-6.179687h225.246093c1.65625 0 3-1.34375 3-3 0-1.660156-1.34375-3-3-3h-225.25c-9.476562 0-18.46875 3.554687-25.324219 10.015625-.625.589843-.964843 1.417969-.941406 2.273437.027344.859375.421875 1.667969 1.082032 2.214844l187.875 156.230469c7.234374 6.011719 16.730468 9.019531 26.234374 9.019531 9.496094 0 19-3.007812 26.230469-9.019531l187.878907-156.230469c.660156-.546875 1.054687-1.355469 1.082031-2.214844.027343-.855468-.3125-1.683594-.941407-2.273437zm0 0" fill="#3a312a"></path><g fill="#ce4e61"><path d="m438.476562 145.671875-21.160156 17.597656c.101563 1.042969.160156 2.101563.160156 3.179688v206.722656c0 1.078125-.058593 2.160156-.160156 3.199219l21.160156 17.601562c5.179688-5.703125 8-13 8-20.800781v-206.722656c0-7.679688-2.878906-15.117188-8-20.777344zm0 0"></path><path d="m416 383.070312c-.382812 1.320313-.863281 2.621094-1.421875 3.878907-1.859375 4.203125-4.578125 7.960937-7.898437 11.082031-2.703126 2.519531-5.820313 4.640625-9.242188 6.199219h17.960938c6.800781 0 13.28125-2.179688 18.601562-6.199219zm0 0"></path><path d="m415.398438 135.410156h-17.960938c3.421875 1.5625 6.539062 3.660156 9.242188 6.199219 4.320312 4.019531 7.578124 9.160156 9.339843 14.941406l17.980469-14.960937c-5.320312-4.019532-11.800781-6.179688-18.601562-6.179688zm0 0"></path></g></svg>