<svg xmlns="http://www.w3.org/2000/svg" xmlns:xlink="http://www.w3.org/1999/xlink" version="1.1" id="Capa_1" x="0px" y="0px" viewBox="0 0 512.002 512.002" style="width: 1em; height: 1em; vertical-align: middle; fill: currentcolor; overflow: hidden; font-size: 200px;" xml:space="preserve" width="200" height="200">
<g>
	<path style="fill:#FFDA2D;" d="M512.001,166.001v300c0,8.399-6.599,15-15,15h-482c-8.401,0-15-6.601-15-15v-300   c0-3.3,1.199-6.301,3.3-8.701c74.7,56.1,164.2,84.001,252.7,84.001s178.001-27.902,252.7-84.001   C510.802,159.7,512.001,162.701,512.001,166.001z"></path>
	<path style="fill:#FDBF00;" d="M512.001,165.001v300c0,8.399-6.599,15-15,15h-241v-239.7c88.5,0,178.001-27.902,252.7-84.001   C510.802,158.7,512.001,161.701,512.001,165.001z"></path>
	<g>
		<g>
			<g>
				<path style="fill:#FDBF00;" d="M256.001,361.001c-3.157,0-6.314-0.994-8.976-2.982l-241-180      c-5.177-3.867-7.296-10.615-5.259-16.747c2.037-6.133,7.773-10.271,14.235-10.271h482c6.462,0,12.198,4.138,14.235,10.271      c2.038,6.132-0.082,12.88-5.259,16.747l-241,180C262.315,360.007,259.158,361.001,256.001,361.001z"></path>
			</g>
		</g>
	</g>
	<path style="fill:#FF9100;" d="M497.001,151.001h-241v210c3.157,0,6.314-0.994,8.976-2.982l241-180   c5.177-3.867,7.296-10.615,5.259-16.747C509.199,155.139,503.463,151.001,497.001,151.001z"></path>
	<path style="fill:#FDBF00;" d="M108.521,384.321c-4.6-6.899-2.739-16.201,4.16-20.801l92.651-61.758   c6.899-4.614,16.216-2.739,20.801,4.16c4.6,6.899,2.739,16.201-4.16,20.801l-92.651,61.758   C122.302,393.134,113.041,391.113,108.521,384.321z"></path>
	<path style="fill:#FF9100;" d="M382.681,388.481l-92.651-61.758c-6.899-4.6-8.76-13.901-4.16-20.801   c4.585-6.899,13.857-8.774,20.801-4.16l92.651,61.758c6.899,4.6,8.76,13.901,4.16,20.801   C398.96,391.115,389.696,393.132,382.681,388.481z"></path>
	<path style="fill:#FF641A;" d="M256.001,31.001c-57.9,0-105,47.1-105,105s47.1,105,105,105s105-47.1,105-105   S313.901,31.001,256.001,31.001z"></path>
	<path style="fill:#F03800;" d="M361.001,136.001c0,57.9-47.1,105-105,105v-210C313.901,31.001,361.001,78.101,361.001,136.001z"></path>
	<path style="fill:#ECECF1;" d="M271.001,106.001v60c0,8.399-6.599,15-15,15c-8.401,0-15-6.601-15-15v-32.1   c-6.899,3.9-15.601,2.1-20.099-4.501c-4.501-6.899-2.701-16.199,4.199-21l22.5-15c2.701-1.5,5.402-2.399,8.401-2.399   c2.401,0,4.799,0.599,7.2,1.8C268.002,95.5,271.001,100.601,271.001,106.001z"></path>
	<path style="fill:#D3D3D8;" d="M271.001,106.001v60c0,8.399-6.599,15-15,15v-90c2.401,0,4.799,0.599,7.2,1.8   C268.002,95.5,271.001,100.601,271.001,106.001z"></path>
</g>















</svg>